<svg width="366" height="424" viewBox="0 0 366 424" fill="none" xmlns="http://www.w3.org/2000/svg">
<path d="M180.829 364.427C280.698 364.427 361.658 359.234 361.658 352.829C361.658 346.424 280.698 341.231 180.829 341.231C80.9598 341.231 0 346.424 0 352.829C0 359.234 80.9598 364.427 180.829 364.427Z" fill="#28B446" fill-opacity="0.5"/>
<path opacity="0.7" d="M180.829 364.427C280.698 364.427 361.658 359.234 361.658 352.829C361.658 346.424 280.698 341.231 180.829 341.231C80.9598 341.231 0 346.424 0 352.829C0 359.234 80.9598 364.427 180.829 364.427Z" fill="#28B446" fill-opacity="0.5"/>
<path d="M366 324.274H0V324.486H366V324.274Z" fill="#EBEBEB"/>
<path d="M329.327 337.919H310.126V338.131H329.327V337.919Z" fill="#EBEBEB"/>
<path d="M261.148 335.163H236.092V335.375H261.148V335.163Z" fill="#EBEBEB"/>
<path d="M304.344 330.05H284.99V330.262H304.344V330.05Z" fill="#EBEBEB"/>
<path d="M81.1715 331.475H49.5564V331.687H81.1715V331.475Z" fill="#EBEBEB"/>
<path d="M43.0343 331.475H38.4008V331.687H43.0343V331.475Z" fill="#EBEBEB"/>
<path d="M137.374 335.053H96.2361V335.265H137.374V335.053Z" fill="#EBEBEB"/>
<path d="M173.484 286.454H32.1421C31.0349 286.452 29.9736 285.941 29.1913 285.033C28.4091 284.125 27.9697 282.895 27.9697 281.612V51.4393C27.9794 50.164 28.423 48.9445 29.2042 48.0458C29.9854 47.1471 31.0412 46.6418 32.1421 46.6396H173.484C174.593 46.6396 175.656 47.1498 176.44 48.0579C177.223 48.9659 177.664 50.1975 177.664 51.4817V281.612C177.664 282.896 177.223 284.128 176.44 285.036C175.656 285.944 174.593 286.454 173.484 286.454ZM32.1421 46.8092C31.0834 46.8115 30.0687 47.3003 29.3208 48.1684C28.5728 49.0364 28.1527 50.2128 28.1527 51.4393V281.612C28.1527 282.838 28.5728 284.015 29.3208 284.883C30.0687 285.751 31.0834 286.24 32.1421 286.242H173.484C174.543 286.24 175.559 285.751 176.308 284.883C177.057 284.016 177.479 282.839 177.481 281.612V51.4393C177.479 50.212 177.057 49.0357 176.308 48.1678C175.559 47.3 174.543 46.8115 173.484 46.8092H32.1421Z" fill="#EBEBEB"/>
<path d="M331.823 286.454H190.474C189.366 286.452 188.304 285.941 187.52 285.033C186.737 284.126 186.296 282.895 186.294 281.612V51.4393C186.306 50.1632 186.751 48.9437 187.533 48.0453C188.316 47.1468 189.372 46.6418 190.474 46.6396H331.823C332.923 46.6441 333.977 47.1504 334.756 48.0488C335.536 48.9472 335.978 50.1654 335.988 51.4393V281.612C335.988 282.893 335.55 284.122 334.769 285.03C333.988 285.937 332.929 286.45 331.823 286.454ZM190.474 46.8092C189.414 46.8115 188.399 47.3 187.65 48.1678C186.901 49.0357 186.479 50.212 186.477 51.4393V281.612C186.479 282.839 186.901 284.016 187.65 284.883C188.399 285.751 189.414 286.24 190.474 286.242H331.823C332.882 286.24 333.898 285.751 334.647 284.883C335.396 284.016 335.818 282.839 335.82 281.612V51.4393C335.818 50.212 335.396 49.0357 334.647 48.1678C333.898 47.3 332.882 46.8115 331.823 46.8092H190.474Z" fill="#EBEBEB"/>
<path d="M165.535 324.274H186.96V233.403H165.535V324.274Z" fill="#E6E6E6"/>
<path d="M170.593 324.275H165.534V307.62H175.892L170.593 324.275Z" fill="#F0F0F0"/>
<path d="M299.315 324.274H320.74V233.403H299.315V324.274Z" fill="#E6E6E6"/>
<path d="M165.534 316.074H303.721V233.403H165.534V316.074Z" fill="#F0F0F0"/>
<path d="M169.458 238.288H232.93V305.28H169.458V238.288Z" fill="#E6E6E6"/>
<path d="M236.326 238.288H299.798V305.28H236.326V238.288Z" fill="#E6E6E6"/>
<path d="M246.033 256.401C245.056 256.402 244.101 256.068 243.289 255.441C242.476 254.814 241.843 253.921 241.469 252.876C241.094 251.832 240.996 250.682 241.186 249.572C241.376 248.463 241.846 247.444 242.537 246.644C243.227 245.844 244.107 245.299 245.065 245.079C246.022 244.859 247.015 244.973 247.917 245.406C248.818 245.84 249.589 246.574 250.131 247.515C250.672 248.456 250.96 249.563 250.959 250.694C250.957 252.207 250.437 253.657 249.514 254.727C248.59 255.797 247.339 256.399 246.033 256.401ZM246.033 245.987C245.229 245.986 244.443 246.26 243.774 246.776C243.104 247.292 242.583 248.027 242.274 248.887C241.965 249.747 241.884 250.693 242.04 251.607C242.196 252.52 242.582 253.36 243.15 254.019C243.718 254.678 244.442 255.127 245.23 255.309C246.018 255.491 246.835 255.399 247.578 255.043C248.321 254.687 248.956 254.083 249.403 253.309C249.849 252.535 250.088 251.625 250.088 250.694C250.086 249.448 249.658 248.253 248.898 247.371C248.138 246.489 247.108 245.992 246.033 245.987Z" fill="#FAFAFA"/>
<path d="M223.26 256.401C222.284 256.402 221.329 256.068 220.516 255.441C219.704 254.814 219.07 253.921 218.696 252.876C218.322 251.832 218.223 250.682 218.413 249.572C218.604 248.463 219.074 247.444 219.764 246.644C220.454 245.844 221.334 245.299 222.292 245.079C223.25 244.859 224.242 244.973 225.144 245.406C226.046 245.84 226.816 246.574 227.358 247.515C227.899 248.456 228.188 249.563 228.186 250.694C228.184 252.207 227.665 253.657 226.741 254.727C225.818 255.797 224.566 256.399 223.26 256.401ZM223.26 245.987C222.456 245.986 221.67 246.26 221.001 246.776C220.332 247.292 219.81 248.027 219.501 248.887C219.193 249.747 219.111 250.693 219.267 251.607C219.423 252.52 219.809 253.36 220.377 254.019C220.945 254.678 221.669 255.127 222.457 255.309C223.246 255.491 224.063 255.399 224.806 255.043C225.548 254.687 226.183 254.083 226.63 253.309C227.077 252.535 227.315 251.625 227.315 250.694C227.313 249.448 226.886 248.253 226.126 247.371C225.366 246.489 224.336 245.992 223.26 245.987Z" fill="#FAFAFA"/>
<path d="M298.663 324.275H303.721V307.62H293.364L298.663 324.275Z" fill="#F0F0F0"/>
<path d="M284.638 221.081C285.875 219.682 284.565 217.766 286.227 216.417C287.888 215.069 286.461 213.025 286.527 211.134C286.593 209.243 288.759 208.955 289.381 206.767C289.56 205.703 289.385 204.601 288.891 203.68C288.674 203.172 288.354 202.732 287.959 202.398C287.563 202.064 287.104 201.846 286.619 201.763C286.135 201.679 285.641 201.733 285.179 201.919C284.716 202.106 284.3 202.419 283.965 202.832C283.897 202.919 283.834 203.01 283.774 203.104C282.537 205.012 283.774 206.852 282.376 208.141C280.978 209.43 278.526 209.693 278.606 211.838C278.687 213.984 276.82 214.17 275.818 215.824C275.21 216.85 275.678 218.537 276.125 219.691C276.447 220.502 277.023 221.141 277.735 221.48C279.39 222.252 282.64 223.337 284.638 221.081Z" fill="#EBEBEB"/>
<path d="M287.39 226.153C289.491 225.127 288.671 222.066 291.27 221.336C293.869 220.607 292.968 217.317 293.817 215.044C294.667 212.772 297.477 213.62 299.124 211.288C300.157 209.855 299.856 207.115 299.527 205.233C299.404 204.573 299.096 203.978 298.651 203.541C298.207 203.104 297.65 202.849 297.068 202.816C295.926 202.71 294.783 203.005 293.788 203.664C291.49 205.318 292.207 208.243 289.989 209.049C287.771 209.855 284.645 208.803 283.855 211.474C283.064 214.145 280.7 213.331 278.797 214.807C277.428 215.858 277.479 218.843 277.618 220.455C277.674 221.147 277.932 221.796 278.35 222.295C279.844 224.05 283.701 227.959 287.39 226.153Z" fill="#E0E0E0"/>
<path d="M285.714 213.848C287.09 212.627 288.532 214.408 289.931 212.695C291.329 210.982 292.859 212.907 294.476 213.111C296.094 213.314 296.672 210.863 298.627 210.465C299.559 210.413 300.474 210.771 301.189 211.465C301.59 211.79 301.918 212.222 302.145 212.724C302.372 213.227 302.49 213.786 302.49 214.353C302.49 214.92 302.372 215.479 302.145 215.982C301.918 216.484 301.59 216.916 301.189 217.24L300.925 217.427C299.117 218.563 297.719 216.91 296.423 218.275C295.128 219.64 294.542 222.464 292.719 222.065C290.897 221.667 290.465 223.761 288.913 224.686C287.954 225.237 286.578 224.457 285.656 223.778C285.009 223.294 284.545 222.542 284.36 221.675C283.957 219.691 283.496 215.816 285.714 213.848Z" fill="#EBEBEB"/>
<path d="M270.84 216.393C270.84 216.393 271.272 233.395 287.983 233.395C304.695 233.395 305.127 216.393 305.127 216.393H270.84Z" fill="#F5F5F5"/>
<path d="M320.843 75.3955H201.461V152.631H320.843V75.3955Z" fill="#E6E6E6"/>
<path d="M319.701 75.3955H200.319V152.631H319.701V75.3955Z" fill="#F5F5F5"/>
<path d="M315.053 147.238V80.7803L204.975 80.7803V147.238H315.053Z" fill="white"/>
<path d="M206.175 147.238V80.7803H204.96V147.238H206.175Z" fill="#E6E6E6"/>
<path d="M54.8122 306.322H150.887L150.887 63.6501H54.8122L54.8122 306.322Z" fill="#E6E6E6"/>
<path d="M51.0936 306.322H150.36L150.36 63.6501H51.0936L51.0936 306.322Z" fill="#F0F0F0"/>
<path d="M54.8122 310.334H150.887V306.331H54.8122V310.334Z" fill="#E6E6E6"/>
<path d="M44.8936 310.334H144.16V306.331H44.8936V310.334Z" fill="#F0F0F0"/>
<path d="M145.156 300.302V69.6885H56.298L56.298 300.302H145.156Z" fill="#FAFAFA"/>
<path d="M101.726 300.302L93.3885 69.6885H78.9681L87.3056 300.302H101.726Z" fill="white"/>
<path d="M142.74 135.968C142.847 135.968 142.949 135.919 143.025 135.832C143.1 135.744 143.143 135.626 143.143 135.502V73.598C143.13 73.4862 143.082 73.3837 143.009 73.3095C142.935 73.2352 142.841 73.1943 142.744 73.1943C142.646 73.1943 142.552 73.2352 142.479 73.3095C142.405 73.3837 142.358 73.4862 142.345 73.598V135.502C142.345 135.624 142.386 135.742 142.46 135.829C142.534 135.916 142.634 135.966 142.74 135.968Z" fill="#F0F0F0"/>
<path d="M84.2019 300.302L75.8718 69.6885H70.25L78.5802 300.302H84.2019Z" fill="white"/>
<path d="M56.9569 300.293L56.9569 69.6797H56.2981L56.2981 300.293H56.9569Z" fill="#E6E6E6"/>
<path opacity="0.5" d="M49.8639 77.5573H147.147L147.63 72.0283H50.3397L49.8639 77.5573Z" fill="#E0E0E0"/>
<path opacity="0.5" d="M49.8639 86.6396H147.147L147.63 81.1191H50.3397L49.8639 86.6396Z" fill="#E0E0E0"/>
<path opacity="0.5" d="M49.8639 95.7216H147.147L147.63 90.2012H50.3397L49.8639 95.7216Z" fill="#E0E0E0"/>
<path opacity="0.5" d="M49.8639 104.812H147.147L147.63 99.2832H50.3397L49.8639 104.812Z" fill="#E0E0E0"/>
<path opacity="0.5" d="M49.8639 113.894H147.147L147.63 108.365H50.3397L49.8639 113.894Z" fill="#E0E0E0"/>
<path opacity="0.5" d="M49.8639 122.976H147.147L147.63 117.447H50.3397L49.8639 122.976Z" fill="#E0E0E0"/>
<path d="M183 362.571C261.384 362.571 324.927 358.273 324.927 352.971C324.927 347.67 261.384 343.372 183 343.372C104.616 343.372 41.0725 347.67 41.0725 352.971C41.0725 358.273 104.616 362.571 183 362.571Z" fill="#F5F5F5"/>
<path d="M221.021 55.1201H224.169L197.171 358.615C197.151 358.92 197.019 359.206 196.801 359.415C196.583 359.623 196.295 359.739 195.997 359.739H193.343C193.18 359.739 193.018 359.705 192.868 359.638C192.718 359.57 192.583 359.471 192.472 359.348C192.362 359.224 192.278 359.078 192.226 358.918C192.174 358.759 192.155 358.591 192.17 358.424L219.015 57.0532C219.053 56.5323 219.28 56.0449 219.652 55.6871C220.023 55.3294 220.512 55.1271 221.021 55.1201Z" fill="#263238"/>
<path d="M225.331 55.1201H222.173L249.215 358.57C249.234 358.875 249.367 359.161 249.585 359.37C249.802 359.578 250.09 359.694 250.388 359.694H253.031C253.195 359.694 253.357 359.66 253.507 359.593C253.657 359.525 253.791 359.427 253.902 359.303C254.012 359.179 254.096 359.033 254.149 358.874C254.201 358.714 254.22 358.546 254.204 358.379L227.36 57.0195C227.313 56.5008 227.08 56.0185 226.704 55.6672C226.329 55.3158 225.839 55.1207 225.331 55.1201Z" fill="#263238"/>
<path d="M350.145 151.055C350.073 151.05 350.003 151.029 349.938 150.996C349.874 150.962 349.817 150.916 349.77 150.859C349.723 150.803 349.687 150.738 349.665 150.667C349.643 150.597 349.635 150.522 349.641 150.448L350.737 133.894C350.741 133.82 350.76 133.747 350.791 133.681C350.823 133.614 350.867 133.555 350.921 133.506C350.975 133.457 351.038 133.419 351.106 133.395C351.174 133.371 351.246 133.361 351.318 133.365C351.465 133.377 351.601 133.447 351.698 133.561C351.794 133.674 351.843 133.822 351.834 133.972L350.737 150.527C350.733 150.602 350.714 150.675 350.682 150.743C350.65 150.81 350.605 150.87 350.55 150.919C350.495 150.968 350.43 151.006 350.361 151.029C350.291 151.053 350.218 151.061 350.145 151.055Z" fill="#2E964C"/>
<path d="M351.998 123.61C351.855 123.599 351.721 123.53 351.627 123.418C351.533 123.307 351.485 123.162 351.494 123.015L353.95 86.5556C353.964 86.4096 354.032 86.2746 354.14 86.1784C354.248 86.0822 354.388 86.0322 354.531 86.0386C354.603 86.0429 354.674 86.0618 354.739 86.0941C354.804 86.1264 354.862 86.1715 354.91 86.2268C354.958 86.2821 354.994 86.3466 355.018 86.4166C355.041 86.4865 355.051 86.5605 355.047 86.6343L352.59 123.082C352.586 123.157 352.568 123.23 352.535 123.297C352.503 123.365 352.458 123.425 352.403 123.474C352.348 123.523 352.284 123.561 352.214 123.584C352.145 123.607 352.071 123.616 351.998 123.61Z" fill="#2E964C"/>
<path d="M339.848 59.1102H110.463C106.904 59.17 103.493 60.5832 100.893 63.0754C98.2931 65.5676 96.6896 68.961 96.3936 72.5968L84.6601 246.429C84.5194 248.157 84.7327 249.897 85.2863 251.536C85.8399 253.175 86.7215 254.678 87.8747 255.948C89.0279 257.218 90.4272 258.226 91.983 258.91C93.5387 259.593 95.2166 259.935 96.909 259.915H326.294C329.853 259.855 333.264 258.442 335.864 255.95C338.464 253.458 340.067 250.064 340.363 246.429L352.097 72.5744C352.234 70.8475 352.019 69.1102 351.464 67.4736C350.909 65.8371 350.026 64.3372 348.874 63.07C347.721 61.8027 346.323 60.796 344.768 60.1142C343.214 59.4323 341.538 59.0904 339.848 59.1102Z" fill="white"/>
<path d="M326.294 260.353H96.9092C95.1593 260.376 93.424 260.025 91.8144 259.321C90.2048 258.617 88.7565 257.576 87.5621 256.265C86.3677 254.954 85.4536 253.402 84.8784 251.708C84.3031 250.014 84.0794 248.216 84.2216 246.428L95.9551 72.5741C96.2677 68.8343 97.9257 65.3472 100.607 62.7903C103.288 60.2335 106.801 58.7895 110.463 58.7391H339.848C341.597 58.719 343.331 59.0733 344.939 59.7793C346.547 60.4854 347.993 61.5276 349.185 62.8394C350.377 64.1512 351.289 65.7036 351.862 67.3973C352.435 69.091 352.657 70.8887 352.514 72.6753L340.824 246.428C340.532 250.188 338.88 253.7 336.192 256.276C333.504 258.852 329.974 260.306 326.294 260.353ZM110.463 59.5371C107.005 59.5894 103.691 60.9593 101.165 63.3798C98.6386 65.8004 97.0825 69.0981 96.7995 72.6303L85.066 246.428C84.9282 248.1 85.1331 249.783 85.6677 251.368C86.2023 252.954 87.0547 254.407 88.1701 255.635C89.2855 256.863 90.6393 257.838 92.1443 258.498C93.6493 259.157 95.2724 259.487 96.9092 259.465H326.294C329.743 259.414 333.051 258.052 335.575 255.643C338.1 253.235 339.662 249.951 339.958 246.428L351.691 72.5741C351.828 70.9034 351.621 69.2219 351.086 67.6376C350.551 66.0533 349.698 64.6013 348.583 63.3747C347.468 62.148 346.114 61.174 344.61 60.5151C343.106 59.8561 341.484 59.5268 339.848 59.5483L110.463 59.5371Z" fill="#2E964C"/>
<path d="M293.573 256.096H134.598C132.303 256.097 130.023 256.09 127.907 256.076C125.791 256.062 123.885 256.042 122.312 256.016C120.739 255.99 119.534 255.96 118.775 255.926C118.016 255.893 117.72 255.857 117.906 255.822L119.23 255.525C119.653 255.45 121.832 255.381 125.352 255.33C128.872 255.279 133.484 255.25 138.308 255.248H297.283C299.584 255.248 301.867 255.255 303.983 255.269C306.099 255.283 308.004 255.303 309.574 255.329C311.145 255.355 312.348 255.386 313.105 255.42C313.863 255.453 314.159 255.489 313.975 255.525L312.65 255.822C312.225 255.896 310.041 255.965 306.518 256.015C302.996 256.066 298.384 256.095 293.573 256.096Z" fill="#2E964C"/>
<path d="M77.8263 142.566C76.5819 144.389 75.2496 146.373 74.0345 148.349C72.8194 150.325 71.575 152.309 70.4331 154.345C69.2912 156.38 68.2371 158.449 67.2196 160.535C66.2516 162.586 65.3888 164.701 64.6356 166.87L64.7967 165.496C64.8167 166.972 64.9837 168.44 65.2944 169.872C65.6243 171.339 66.0906 172.761 66.6852 174.111C67.3078 175.522 68.043 176.862 68.8812 178.114C69.2985 178.759 69.7377 179.386 70.2135 179.988C70.4477 180.285 70.6893 180.582 70.9455 180.836C71.2017 181.091 71.4579 181.43 71.6775 181.642L71.8166 181.794C72.1112 182.122 72.2938 182.562 72.331 183.034C72.3682 183.505 72.2574 183.976 72.019 184.361C71.7805 184.745 71.4304 185.017 71.0329 185.127C70.6354 185.236 70.2171 185.176 69.8548 184.957C69.0907 184.497 68.3568 183.973 67.6588 183.389C66.9776 182.827 66.3227 182.224 65.697 181.582C64.4262 180.284 63.2846 178.824 62.2932 177.232C61.285 175.584 60.461 173.795 59.841 171.907C59.2065 169.98 58.7954 167.964 58.6186 165.911C58.5874 165.514 58.6247 165.113 58.7284 164.733L58.7796 164.538C59.5025 161.968 60.3807 159.46 61.4075 157.033C62.4177 154.65 63.5303 152.36 64.7088 150.139C65.8874 147.917 67.1244 145.746 68.4347 143.634C69.745 141.523 71.0626 139.496 72.5778 137.435C73.1591 136.642 73.9859 136.145 74.8804 136.051C75.7749 135.957 76.6654 136.274 77.3602 136.934C78.055 137.593 78.4986 138.542 78.5953 139.576C78.6921 140.611 78.4343 141.648 77.8775 142.464L77.8263 142.566Z" fill="#FFD5BE"/>
<path d="M70.272 180.836L76.5819 183.99L70.4184 187.382C70.4184 187.382 66.8097 184.533 67.1171 181.379L70.272 180.836Z" fill="#FFD5BE"/>
<path d="M79.3782 189.689L74.0712 192.207L70.4478 187.382L76.6185 183.99L79.3782 189.689Z" fill="#FFD5BE"/>
<path d="M83.2064 118.991C83.9824 123.63 84.7583 132.093 81.9694 135.052C84.2249 139.364 87.5699 142.768 91.5512 144.804C96.8802 141.158 94.3402 135.544 94.3402 135.544C89.9042 134.145 90.0214 130.337 90.7973 126.793L83.2064 118.991Z" fill="#FFD5BE"/>
<path d="M79.9198 135.587C79.7659 134.883 79.7837 134.143 79.9711 133.45C79.9711 133.45 89.8604 132.085 92.986 132.967C96.1117 133.849 97.2975 137.461 97.2975 137.461L79.9198 135.587Z" fill="#E0E0E0"/>
<path d="M99.0763 112.445C99.0763 113.072 99.3691 113.589 99.7204 113.598C100.072 113.606 100.357 113.115 100.35 112.479C100.343 111.843 100.064 111.334 99.7131 111.317C99.3618 111.3 99.0763 111.809 99.0763 112.445Z" fill="#263238"/>
<path d="M99.552 111.351L100.84 110.952C100.84 110.952 100.189 112.114 99.552 111.351Z" fill="#263238"/>
<path d="M99.2153 113.887C99.7002 115.34 100.35 116.711 101.148 117.966C100.871 118.186 100.555 118.333 100.224 118.394C99.8918 118.456 99.5524 118.431 99.23 118.322L99.2153 113.887Z" fill="#A02724"/>
<path d="M97.5683 109.018C97.4866 109.02 97.4068 108.99 97.3414 108.934C97.2759 108.871 97.2339 108.781 97.2244 108.683C97.2148 108.585 97.2384 108.486 97.2902 108.408C97.591 107.949 97.9847 107.582 98.4366 107.341C98.8886 107.1 99.3848 106.992 99.8815 107.026C99.9663 107.038 100.044 107.089 100.097 107.166C100.15 107.244 100.175 107.342 100.167 107.441C100.164 107.488 100.153 107.534 100.135 107.577C100.116 107.619 100.09 107.656 100.059 107.686C100.027 107.717 99.9905 107.739 99.9513 107.752C99.912 107.765 99.8708 107.769 99.8302 107.763C99.4368 107.743 99.0451 107.834 98.6892 108.029C98.3332 108.224 98.0238 108.517 97.7879 108.883C97.7612 108.921 97.728 108.953 97.6902 108.977C97.6524 109 97.611 109.014 97.5683 109.018Z" fill="#263238"/>
<path d="M80.9812 109.29C81.4131 117.032 81.457 120.314 84.8096 124.393C89.853 130.524 97.8684 128.506 99.4496 120.84C100.84 113.937 99.8961 102.43 93.4179 99.1481C92.0192 98.3987 90.475 98.0887 88.9402 98.2493C87.4054 98.4098 85.9341 99.0353 84.674 100.063C83.4139 101.091 82.4093 102.484 81.7611 104.104C81.1129 105.723 80.844 107.512 80.9812 109.29Z" fill="#FFD5BE"/>
<path d="M81.2521 100.81C78.6681 101.522 75.3375 107.882 76.1281 112.343C76.9699 117.007 69.5401 123.757 75.2423 125.987C81.5668 128.463 81.296 132.432 88.799 130.482C92.7371 129.464 103.988 130.804 98.3882 120.263C93.5863 111.241 96.0897 107.543 96.0897 107.543C96.8323 107.549 97.5669 107.365 98.2412 107.004C98.9155 106.644 99.513 106.115 99.9913 105.457C101.631 103.201 100.152 93.1103 94.8014 96.5871C90.1312 99.5636 78.0239 93.9413 81.2521 100.81Z" fill="#263238"/>
<path d="M93.9596 113.81C94.0485 114.544 94.2866 115.244 94.6544 115.851C95.0221 116.459 95.509 116.956 96.0751 117.303C97.3927 117.855 97.7367 116.684 97.8758 114.878C97.9929 113.25 97.5537 110.799 96.1922 110.596C94.8307 110.392 93.8132 112.097 93.9596 113.81Z" fill="#FFD5BE"/>
<path d="M98.5273 183.55C98.5273 183.55 102.37 241.409 102.758 266.035C102.774 267.018 102.706 268.001 102.553 268.969C96.0312 310.105 88.6965 344.585 88.6965 344.585L85.0804 343.44C85.0804 343.44 85.871 295.884 90.5265 265.696C85.9369 239.323 81.2521 183.55 81.2521 183.55H98.5273Z" fill="#FFD5BE"/>
<path d="M96.2069 183.55C96.2069 183.55 86.076 240.366 82.5404 264.067C78.8804 288.702 71.7361 347.841 71.7361 347.841H68.0249C68.0249 347.841 65.0969 292.603 71.0919 265.696C70.704 239.323 75.4107 183.55 75.4107 183.55H96.2069Z" fill="#FFD5BE"/>
<path d="M105.291 141.879C105.214 140.426 104.716 139.045 103.878 137.96C103.04 136.875 101.91 136.15 100.672 135.9C98.4759 135.476 95.6358 134.976 92.964 134.696C88.8506 134.353 84.7212 134.353 80.6078 134.696C79.0267 134.806 77.4895 134.942 76.0987 135.129C75.2807 135.236 74.4922 135.546 73.7867 136.038C73.0811 136.529 72.4749 137.191 72.0091 137.977C71.5434 138.763 71.2289 139.657 71.0871 140.596C70.9452 141.535 70.9793 142.499 71.187 143.422C75.579 164.258 75.3521 171.94 75.2715 183.55C64.599 202.545 68.5371 221.506 67.1171 248.362C78.3825 250.804 91.5366 248.286 103.344 250.007C106.074 217.927 102.663 189.358 101.331 183.55C104.046 159.22 105.554 147.552 105.291 141.879Z" fill="#263238"/>
<path d="M75.2058 135.332C70.499 137.104 67.7247 142.311 67.7247 142.311C67.7247 142.311 73.7418 152.996 74.4152 155.972C76.9187 148.145 75.2058 135.332 75.2058 135.332Z" fill="#263238"/>
<path d="M100.196 244.588H100.145C99.7662 244.582 99.3931 244.48 99.0518 244.29C98.7104 244.099 98.409 243.825 98.1686 243.486C97.9841 243.209 97.748 242.985 97.478 242.829C97.2079 242.673 96.911 242.591 96.6094 242.587C95.9632 242.602 95.347 242.906 94.8892 243.435C94.6142 243.755 94.2867 244.009 93.926 244.181C93.5652 244.353 93.1784 244.439 92.7884 244.435C92.4111 244.431 92.0394 244.33 91.6992 244.141C91.359 243.952 91.0587 243.679 90.8193 243.341C90.6344 243.066 90.3983 242.841 90.1283 242.686C89.8584 242.53 89.5616 242.447 89.2601 242.443C88.6159 242.458 88.0019 242.762 87.5473 243.291C87.2751 243.618 86.9473 243.877 86.5845 244.051C86.2216 244.225 85.8316 244.309 85.4391 244.3C85.0614 244.293 84.6896 244.191 84.3496 244C84.0095 243.81 83.7093 243.536 83.47 243.197C83.2855 242.921 83.0494 242.696 82.7794 242.541C82.5094 242.385 82.2124 242.302 81.9109 242.298C81.5909 242.3 81.2745 242.376 80.9803 242.522C80.6861 242.667 80.4201 242.88 80.198 243.146C79.6506 243.772 78.917 244.13 78.1484 244.147H78.0971C77.7197 244.144 77.3476 244.044 77.0073 243.855C76.6669 243.665 76.3668 243.392 76.1281 243.053C75.9432 242.777 75.707 242.553 75.4371 242.397C75.1671 242.242 74.8704 242.159 74.5689 242.154C74.2478 242.155 73.9301 242.231 73.6346 242.376C73.3391 242.522 73.0719 242.735 72.8487 243.002C72.2911 243.647 71.5358 244.01 70.7479 244.011C70.3701 244.005 69.9981 243.903 69.658 243.713C69.3179 243.522 69.0178 243.248 68.7788 242.909C68.5965 242.632 68.3618 242.408 68.0926 242.254C67.8235 242.099 67.5273 242.019 67.2269 242.019V241.323C67.6047 241.33 67.9766 241.432 68.3168 241.622C68.6569 241.812 68.957 242.087 69.196 242.426C69.3752 242.712 69.6091 242.947 69.8796 243.112C70.15 243.277 70.4497 243.367 70.7552 243.375C71.4002 243.365 72.0156 243.06 72.4681 242.527C73.0146 241.901 73.7487 241.542 74.5177 241.527H74.5689C74.9461 241.532 75.3179 241.632 75.6581 241.821C75.9983 242.01 76.2986 242.283 76.538 242.621C76.7228 242.897 76.959 243.121 77.2289 243.276C77.4989 243.432 77.7956 243.515 78.0971 243.52C78.4169 243.517 78.7329 243.44 79.027 243.295C79.321 243.149 79.5872 242.937 79.81 242.672C80.0827 242.345 80.4106 242.086 80.7733 241.913C81.136 241.739 81.5258 241.654 81.9182 241.662C82.2959 241.669 82.6679 241.771 83.008 241.961C83.3482 242.152 83.6482 242.426 83.8873 242.765C84.0717 243.041 84.3078 243.266 84.5779 243.421C84.8479 243.577 85.1448 243.66 85.4464 243.664C86.0911 243.651 86.7059 243.347 87.1593 242.816C87.7067 242.19 88.4403 241.832 89.2089 241.815H89.3041C89.6815 241.819 90.0536 241.919 90.3939 242.108C90.7342 242.297 91.0344 242.57 91.2731 242.909C91.458 243.185 91.6942 243.409 91.9641 243.565C92.234 243.72 92.5308 243.803 92.8323 243.808C93.4779 243.789 94.093 243.486 94.5525 242.96C94.8232 242.632 95.1497 242.373 95.5114 242.2C95.873 242.026 96.2619 241.941 96.6533 241.951C97.0321 241.957 97.4052 242.059 97.7465 242.249C98.0879 242.44 98.3893 242.714 98.6297 243.053C98.8146 243.329 99.0508 243.553 99.3207 243.709C99.5906 243.865 99.8874 243.948 100.189 243.952C100.51 243.954 100.829 243.879 101.124 243.733C101.42 243.588 101.687 243.373 101.909 243.104C102.183 242.78 102.512 242.524 102.874 242.352C103.237 242.18 103.626 242.095 104.017 242.103V242.79C103.696 242.792 103.379 242.868 103.083 243.014C102.788 243.159 102.521 243.372 102.297 243.638C102.018 243.95 101.689 244.194 101.329 244.357C100.968 244.52 100.583 244.598 100.196 244.588Z" fill="white"/>
<path opacity="0.2" d="M86.2882 235.676L83.9092 211.83L77.0942 207.336L86.2882 235.676Z" fill="black"/>
<path d="M73.8589 186.119L101.96 188.926C102.348 188.926 102.648 188.332 102.692 187.442L102.802 182.023C102.802 180.929 102.422 179.92 101.953 179.869L74.9862 177.325C74.5982 177.325 74.2981 177.919 74.2542 178.809L73.0024 184.016C72.9805 185.059 73.3831 186.077 73.8589 186.119Z" fill="#2E964C"/>
<path d="M105.642 140.963L107.245 155.379L108.109 162.545C108.417 164.919 108.724 167.285 109.075 169.626L109.017 169.354C109.247 170.274 109.559 171.163 109.946 172.009C110.364 172.967 110.861 173.95 111.41 174.926C112.472 176.885 113.643 178.835 114.865 180.76C116.088 182.685 117.34 184.618 118.643 186.509C119.946 188.4 121.249 190.317 122.544 192.191C122.802 192.575 122.929 193.055 122.9 193.541C122.872 194.026 122.689 194.482 122.388 194.822C122.087 195.161 121.689 195.36 121.269 195.38C120.849 195.4 120.438 195.24 120.114 194.93C118.46 193.302 116.908 191.614 115.356 189.893C113.804 188.171 112.333 186.365 110.869 184.517C109.405 182.668 107.992 180.743 106.667 178.665C106.001 177.622 105.35 176.545 104.735 175.375C104.053 174.107 103.498 172.753 103.08 171.339V171.271L103.036 171.076C102.041 166.2 101.236 161.358 100.577 156.499C100.24 154.073 99.9107 151.648 99.6253 149.214C99.3398 146.781 99.0689 144.355 98.8933 141.879C98.7904 140.833 99.0503 139.783 99.6159 138.959C100.181 138.135 101.006 137.606 101.909 137.486C102.812 137.367 103.718 137.668 104.43 138.324C105.141 138.979 105.598 139.934 105.701 140.98L105.642 140.963Z" fill="#FFD5BE"/>
<path d="M100.54 135.875C106.045 136.638 107.128 141.684 107.128 141.684C107.128 141.684 100.635 150.808 99.1494 155.973C95.3357 141.616 100.54 135.875 100.54 135.875Z" fill="#263238"/>
<path d="M177.583 163.655L118.657 201.188L117.881 199.543L177.195 162.824L177.583 163.655Z" fill="#263238"/>
<path d="M120.948 190.673L127.536 191.911L122.376 197.152C122.376 197.152 118.416 195.405 118.094 192.157L120.948 190.673Z" fill="#FFD5BE"/>
<path d="M122.734 190.384C122.881 190.62 122.965 190.9 122.976 191.19C122.987 191.481 122.925 191.768 122.797 192.018C122.669 192.268 122.481 192.469 122.255 192.597C122.03 192.724 121.778 192.773 121.529 192.737C121.28 192.701 121.046 192.582 120.855 192.394C120.664 192.206 120.524 191.957 120.453 191.679C120.382 191.4 120.383 191.103 120.455 190.825C120.528 190.547 120.669 190.3 120.861 190.113C121.141 189.862 121.495 189.75 121.846 189.801C122.197 189.852 122.516 190.062 122.734 190.384Z" fill="#263238"/>
<path d="M118.584 193.522C118.39 193.525 118.196 193.502 118.006 193.454C117.912 193.428 117.831 193.36 117.78 193.264C117.729 193.169 117.713 193.054 117.735 192.945C117.758 192.836 117.816 192.742 117.899 192.683C117.981 192.625 118.08 192.606 118.174 192.631C118.262 192.631 120.129 193.081 121.446 190.545C121.471 190.497 121.504 190.455 121.543 190.422C121.582 190.389 121.626 190.365 121.673 190.351C121.72 190.338 121.769 190.335 121.816 190.344C121.864 190.352 121.91 190.372 121.951 190.401C122.034 190.461 122.093 190.555 122.116 190.664C122.139 190.774 122.125 190.889 122.076 190.986C121.744 191.734 121.245 192.363 120.631 192.81C120.016 193.256 119.309 193.502 118.584 193.522Z" fill="#263238"/>
<path d="M129.601 198.246L127.888 199.798C127.552 200.106 127.138 200.278 126.709 200.287C126.281 200.297 125.862 200.142 125.516 199.848L122.361 197.152L127.522 191.911L129.85 194.947C130.028 195.178 130.164 195.45 130.248 195.744C130.332 196.038 130.364 196.35 130.341 196.659C130.317 196.968 130.24 197.268 130.112 197.541C129.985 197.814 129.811 198.054 129.601 198.246Z" fill="#FFD5BE"/>
<path d="M89.304 344.059L85.0219 342.702C84.9086 342.665 84.7879 342.674 84.6799 342.728C84.572 342.782 84.4833 342.878 84.4289 342.999L82.6136 347.493C82.5564 347.631 82.5264 347.781 82.5258 347.934C82.5252 348.086 82.554 348.237 82.6101 348.375C82.6662 348.513 82.7482 348.635 82.8501 348.732C82.952 348.829 83.0713 348.898 83.1992 348.935C85.4903 349.613 86.1272 349.545 89.0039 350.563C91.4415 351.411 91.4854 352.895 95.5334 353.209C97.9782 353.395 97.4293 351.055 96.3971 350.8C92.7371 349.893 92.3784 348.494 90.3215 345.382C90.036 344.898 89.8238 344.22 89.304 344.059Z" fill="#263238"/>
<path d="M72.2851 346.501H67.8931C67.7766 346.496 67.6629 346.542 67.5746 346.63C67.4863 346.719 67.4301 346.842 67.4173 346.976L66.8829 351.92C66.8663 352.074 66.8781 352.23 66.9176 352.378C66.9571 352.527 67.0234 352.663 67.112 352.78C67.2006 352.896 67.3095 352.989 67.4316 353.053C67.5536 353.117 67.686 353.15 67.8199 353.15C70.1623 353.099 69.4083 353.15 72.3583 353.15H76.5673C79.0195 353.15 78.2435 350.945 77.2041 350.674C75.1545 350.156 74.5835 349.317 73.5441 347.477C73.4184 347.208 73.238 346.979 73.0186 346.809C72.7993 346.639 72.5475 346.533 72.2851 346.501Z" fill="#263238"/>
<path d="M189.689 81.1416H168.266V86.8583H189.689V81.1416Z" fill="#92E3A9"/>
<path d="M182.345 89.4053H168.266V95.122H182.345V89.4053Z" fill="#92E3A9"/>
<path d="M176.37 97.668H168.266V103.385H176.37V97.668Z" fill="#92E3A9"/>
<path opacity="0.2" d="M189.689 81.1416H168.266V86.8583H189.689V81.1416Z" fill="black"/>
<path opacity="0.2" d="M182.345 89.4053H168.266V95.122H182.345V89.4053Z" fill="black"/>
<path opacity="0.2" d="M176.37 97.668H168.266V103.385H176.37V97.668Z" fill="black"/>
<path d="M138.333 144.466H131.069V161.688H138.333V144.466Z" fill="#92E3A9"/>
<path d="M148.823 150.387H141.559V161.697H148.823V150.387Z" fill="#92E3A9"/>
<path d="M159.323 155.183H152.058V161.697H159.323V155.183Z" fill="#92E3A9"/>
<path opacity="0.2" d="M138.333 144.466H131.069V161.688H138.333V144.466Z" fill="black"/>
<path opacity="0.2" d="M148.823 150.387H141.559V161.697H148.823V150.387Z" fill="black"/>
<path opacity="0.2" d="M159.323 155.183H152.058V161.697H159.323V155.183Z" fill="black"/>
<path d="M217.403 174.726H129.443C128.235 174.729 127.039 174.456 125.923 173.923C124.807 173.391 123.793 172.608 122.938 171.621C122.084 170.634 121.406 169.462 120.943 168.172C120.481 166.881 120.243 165.498 120.243 164.101V80.0679C120.247 77.2515 121.216 74.552 122.937 72.5605C124.658 70.569 126.991 69.4478 129.425 69.4424H217.386C218.593 69.441 219.788 69.7148 220.904 70.2481C222.019 70.7813 223.033 71.5636 223.887 72.5503C224.742 73.537 225.42 74.7087 225.883 75.9986C226.345 77.2885 226.584 78.6712 226.586 80.0679V164.101C226.586 166.919 225.618 169.622 223.896 171.614C222.174 173.607 219.839 174.726 217.403 174.726ZM129.443 70.4139C127.222 70.4193 125.094 71.4425 123.524 73.2595C121.953 75.0765 121.069 77.5393 121.065 80.1088V164.142C121.069 166.711 121.953 169.174 123.524 170.991C125.094 172.808 127.222 173.831 129.443 173.837H217.403C219.624 173.831 221.752 172.808 223.322 170.991C224.892 169.174 225.777 166.711 225.781 164.142V80.0679C225.777 77.4983 224.892 75.0355 223.322 73.2186C221.752 71.4016 219.624 70.3784 217.403 70.373L129.443 70.4139Z" fill="#263238"/>
<path d="M216.272 144.936H184.907V145.866H216.272V144.936Z" fill="#263238"/>
<path d="M216.272 148.832H184.907V149.763H216.272V148.832Z" fill="#263238"/>
<path d="M216.272 152.719H184.907V153.649H216.272V152.719Z" fill="#263238"/>
<path d="M216.272 156.604H184.907V157.535H216.272V156.604Z" fill="#263238"/>
<path d="M216.272 160.491H184.907V161.422H216.272V160.491Z" fill="#263238"/>
<path d="M161.47 81.5303H130.106V82.4609H161.47V81.5303Z" fill="#263238"/>
<path d="M161.47 85.416H130.106V86.3466H161.47V85.416Z" fill="#263238"/>
<path d="M161.47 89.3027H130.106V90.2334H161.47V89.3027Z" fill="#263238"/>
<path d="M161.47 93.1885H130.106V94.1191H161.47V93.1885Z" fill="#263238"/>
<path d="M161.47 97.0752H130.106V98.0058H161.47V97.0752Z" fill="#263238"/>
<path d="M210.077 112.926L215.698 116.342L215.053 97.9951L201.646 107.813L207.267 111.218L203.033 120.535C202.287 120.534 201.563 120.822 200.974 121.353L193.507 117.354V117.303C193.539 116.261 193.215 115.245 192.605 114.477C191.995 113.709 191.148 113.25 190.248 113.198C189.347 113.147 188.466 113.509 187.794 114.204C187.122 114.9 186.714 115.873 186.657 116.915C186.649 117.044 186.649 117.174 186.657 117.303C186.662 117.871 186.767 118.431 186.967 118.95L177.245 131.222C176.934 131.108 176.609 131.05 176.282 131.048C176.113 131.048 175.944 131.069 175.778 131.109L161.78 110.543C162.099 109.592 162.09 108.535 161.752 107.593C161.414 106.65 160.775 105.895 159.968 105.484C159.161 105.074 158.247 105.04 157.419 105.39C156.591 105.74 155.911 106.447 155.523 107.363C155.329 107.858 155.23 108.395 155.231 108.938C155.242 109.344 155.301 109.747 155.408 110.134L139.456 129.054C138.821 128.789 138.133 128.747 137.478 128.933C136.823 129.12 136.23 129.526 135.774 130.102C135.318 130.677 135.02 131.396 134.916 132.167C134.812 132.938 134.907 133.728 135.19 134.436C135.473 135.145 135.931 135.741 136.506 136.149C137.081 136.558 137.747 136.76 138.421 136.732C139.095 136.703 139.747 136.444 140.294 135.988C140.842 135.531 141.26 134.898 141.497 134.167C141.631 133.73 141.7 133.27 141.701 132.807C141.701 132.482 141.663 132.158 141.586 131.846L157.714 112.691C158.031 112.813 158.362 112.875 158.695 112.875C158.906 112.877 159.116 112.853 159.323 112.803L173.242 133.257C172.805 134.19 172.706 135.286 172.967 136.303C173.228 137.32 173.828 138.176 174.634 138.682C175.44 139.188 176.387 139.302 177.266 139C178.146 138.698 178.885 138.004 179.322 137.071C179.569 136.552 179.711 135.976 179.738 135.384C179.746 135.251 179.746 135.118 179.738 134.985C179.732 134.571 179.673 134.161 179.561 133.768L189.512 121.23C189.701 121.271 189.894 121.291 190.086 121.292C190.767 121.291 191.431 121.056 191.995 120.617L199.596 124.707C199.61 125.233 199.714 125.749 199.902 126.227C200.09 126.706 200.359 127.136 200.692 127.492C201.026 127.849 201.417 128.125 201.844 128.305C202.271 128.485 202.724 128.565 203.178 128.539C203.631 128.514 204.076 128.385 204.486 128.159C204.896 127.933 205.263 127.614 205.565 127.222C205.868 126.83 206.1 126.373 206.248 125.876C206.396 125.379 206.457 124.853 206.427 124.329C206.394 123.594 206.183 122.886 205.817 122.284L210.077 112.926Z" fill="#263238"/>
<path d="M217.606 185.577C216.223 185.58 214.896 186.218 213.919 187.351C212.941 188.484 212.392 190.02 212.392 191.621V243.992C212.392 245.592 212.942 247.127 213.919 248.259C214.897 249.39 216.224 250.026 217.606 250.026H272.4C273.783 250.026 275.11 249.39 276.09 248.259C277.069 247.128 277.62 245.593 277.623 243.992V191.59C277.62 189.989 277.069 188.455 276.09 187.323C275.11 186.192 273.783 185.557 272.4 185.557L217.606 185.577Z" stroke="#263238" stroke-linejoin="round"/>
<path d="M220.876 192.716H216.714V193.36H220.876V192.716Z" fill="#263238"/>
<path d="M220.876 197.972H216.714V198.616H220.876V197.972Z" fill="#263238"/>
<path d="M220.876 203.229H216.714V203.873H220.876V203.229Z" fill="#263238"/>
<path d="M220.876 208.495H216.714V209.139H220.876V208.495Z" fill="#263238"/>
<path d="M220.717 197.972H216.555V198.616H220.717V197.972Z" fill="#263238"/>
<path d="M220.876 213.752H216.714V214.396H220.876V213.752Z" fill="#263238"/>
<path d="M248.176 242.202C252.125 242.297 256.01 241.033 259.339 238.571C262.668 236.109 265.29 232.56 266.875 228.372C268.46 224.185 268.935 219.548 268.241 215.047C267.548 210.547 265.715 206.386 262.977 203.091C260.239 199.796 256.717 197.515 252.858 196.538C248.999 195.56 244.976 195.929 241.298 197.598C237.621 199.267 234.453 202.161 232.198 205.914C229.942 209.667 228.699 214.11 228.627 218.681C228.528 224.799 230.53 230.712 234.196 235.122C237.861 239.532 242.889 242.079 248.176 242.202ZM248.874 202.789C251.67 202.854 254.387 203.877 256.68 205.73C258.974 207.582 260.741 210.179 261.759 213.194C262.777 216.208 262.999 219.504 262.398 222.665C261.797 225.826 260.399 228.709 258.382 230.951C256.364 233.192 253.818 234.691 251.064 235.258C248.31 235.825 245.474 235.434 242.912 234.134C240.35 232.835 238.179 230.686 236.673 227.959C235.167 225.232 234.394 222.05 234.451 218.814C234.527 214.476 236.09 210.35 238.795 207.345C241.499 204.34 245.125 202.701 248.874 202.789Z" fill="#92E3A9"/>
<path opacity="0.2" d="M248.176 242.202C252.125 242.297 256.01 241.033 259.339 238.571C262.668 236.109 265.29 232.56 266.875 228.372C268.46 224.185 268.935 219.548 268.241 215.047C267.548 210.547 265.715 206.386 262.977 203.091C260.239 199.796 256.717 197.515 252.858 196.538C248.999 195.56 244.976 195.929 241.298 197.598C237.621 199.267 234.453 202.161 232.198 205.914C229.942 209.667 228.699 214.11 228.627 218.681C228.528 224.799 230.53 230.712 234.196 235.122C237.861 239.532 242.889 242.079 248.176 242.202ZM248.874 202.789C251.67 202.854 254.387 203.877 256.68 205.73C258.974 207.582 260.741 210.179 261.759 213.194C262.777 216.208 262.999 219.504 262.398 222.665C261.797 225.826 260.399 228.709 258.382 230.951C256.364 233.192 253.818 234.691 251.064 235.258C248.31 235.825 245.474 235.434 242.912 234.134C240.35 232.835 238.179 230.686 236.673 227.959C235.167 225.232 234.394 222.05 234.451 218.814C234.527 214.476 236.09 210.35 238.795 207.345C241.499 204.34 245.125 202.701 248.874 202.789Z" fill="black"/>
<path d="M234.248 235.636C236.127 237.83 238.362 239.575 240.824 240.769C243.286 241.964 245.927 242.586 248.596 242.599C251.266 242.612 253.912 242.017 256.383 240.847C258.853 239.677 261.101 237.955 262.996 235.78C263.066 235.69 263.105 235.573 263.105 235.452C263.105 235.332 263.066 235.215 262.996 235.125L258.852 230.298C258.815 230.254 258.771 230.218 258.723 230.193C258.674 230.169 258.622 230.156 258.569 230.155C258.462 230.162 258.36 230.209 258.277 230.288C256.974 231.801 255.418 232.99 253.704 233.783C251.99 234.576 250.154 234.956 248.308 234.9H247.327C244.327 234.706 241.466 233.373 239.188 231.106C238.985 230.891 238.773 230.676 238.578 230.451C236.25 227.761 234.818 224.206 234.535 220.413C234.252 216.62 235.136 212.834 237.032 209.722C237.05 209.693 237.064 209.663 237.076 209.63C237.164 209.487 237.261 209.364 237.367 209.221C238.727 207.229 240.48 205.644 242.48 204.601C244.479 203.558 246.666 203.087 248.856 203.228C248.909 203.229 248.96 203.219 249.009 203.197C249.058 203.175 249.102 203.142 249.14 203.1C249.178 203.059 249.208 203.009 249.229 202.953C249.25 202.898 249.262 202.838 249.263 202.778L249.378 195.998C249.38 195.875 249.341 195.755 249.268 195.665C249.195 195.576 249.095 195.522 248.989 195.517C244.943 195.438 240.97 196.759 237.576 199.309C234.183 201.859 231.525 205.523 229.942 209.832C228.358 214.14 227.922 218.898 228.69 223.495C229.457 228.092 231.392 232.32 234.248 235.636Z" fill="#263238"/>
<path d="M248.998 195.527C254.506 195.534 259.787 198.072 263.679 202.583C267.571 207.094 269.756 213.209 269.753 219.583C269.75 225.957 267.559 232.07 263.663 236.576C259.767 241.082 254.484 243.613 248.975 243.613C243.467 243.613 238.184 241.082 234.288 236.576C230.391 232.07 228.201 225.957 228.198 219.583C228.195 213.209 230.38 207.094 234.272 202.583C238.164 198.072 243.445 195.534 248.953 195.527H248.998ZM248.184 241.721C252.054 241.814 255.86 240.576 259.122 238.164C262.383 235.753 264.953 232.277 266.507 228.175C268.061 224.073 268.529 219.53 267.851 215.121C267.174 210.711 265.382 206.633 262.701 203.403C260.021 200.172 256.572 197.934 252.792 196.971C249.013 196.009 245.071 196.365 241.466 197.995C237.861 199.625 234.755 202.455 232.54 206.128C230.326 209.801 229.102 214.152 229.025 218.629C228.92 224.632 230.88 230.438 234.473 234.769C238.065 239.101 242.997 241.605 248.184 241.732V241.721ZM248.883 202.308C251.752 202.375 254.54 203.426 256.894 205.327C259.247 207.228 261.061 209.894 262.105 212.987C263.149 216.081 263.377 219.464 262.76 222.707C262.143 225.951 260.708 228.91 258.638 231.21C256.567 233.51 253.954 235.048 251.128 235.63C248.302 236.211 245.39 235.809 242.762 234.476C240.133 233.142 237.905 230.937 236.36 228.138C234.814 225.339 234.021 222.073 234.08 218.752C234.159 214.3 235.762 210.067 238.538 206.983C241.314 203.899 245.035 202.217 248.883 202.308ZM248.308 234.941C251.019 235.005 253.685 234.138 255.969 232.448C258.254 230.759 260.054 228.323 261.142 225.45C262.231 222.577 262.558 219.394 262.084 216.305C261.609 213.217 260.353 210.36 258.475 208.097C256.598 205.834 254.182 204.266 251.534 203.592C248.887 202.918 246.126 203.167 243.6 204.309C241.075 205.45 238.899 207.433 237.348 210.006C235.796 212.578 234.939 215.626 234.884 218.762C234.813 222.966 236.187 227.03 238.704 230.062C241.221 233.094 244.676 234.845 248.308 234.931V234.941Z" fill="#263238"/>
<path d="M251.41 80.4266C251.355 80.4318 251.29 80.4251 251.226 80.4077C251.162 80.3903 251.104 80.3632 251.062 80.3314C250.977 80.2457 250.951 80.1586 250.988 80.0883L253.732 71.9143C253.769 71.8186 253.849 71.7364 253.968 71.6729C254.071 71.6189 254.213 71.5872 254.379 71.5812L260.233 71.6443C260.864 71.6212 261.578 71.7156 262.269 71.9139C262.762 72.0672 263.19 72.2986 263.462 72.5584C263.736 72.8349 263.897 73.117 263.932 73.3817C263.991 73.6705 263.978 73.9476 263.895 74.2064C263.816 74.4482 263.683 74.6746 263.499 74.8823C263.35 75.0581 263.168 75.2215 262.954 75.3709C262.779 75.4925 262.586 75.6057 262.376 75.71C262.244 75.7795 262.101 75.8424 261.946 75.8986C262.355 76.1319 262.662 76.3999 262.829 76.6688C263.072 77.1152 263.103 77.5424 262.919 77.9108C262.8 78.2534 262.603 78.5734 262.331 78.8656C262.03 79.1784 261.661 79.4636 261.228 79.7179C260.77 79.9574 260.232 80.1527 259.623 80.2995C259.07 80.4489 258.413 80.521 257.693 80.5114L251.41 80.4266ZM261.174 74.1706C261.282 73.8494 261.208 73.6063 260.943 73.4318C260.677 73.2573 260.197 73.1771 259.523 73.1713L256.015 73.1307L255.358 75.0866L258.866 75.1273C259.49 75.1416 260.039 75.06 260.453 74.8914C260.836 74.7199 261.082 74.4779 261.168 74.1881L261.174 74.1706ZM254.096 78.8466L257.76 78.8852C258.442 78.9011 259.034 78.8032 259.46 78.604C259.863 78.4095 260.126 78.1449 260.227 77.8318C260.298 77.7208 260.311 77.5921 260.265 77.4548C260.218 77.3175 260.113 77.1751 259.958 77.038C259.676 76.8273 259.191 76.7202 258.489 76.7132L254.825 76.6747L254.096 78.8466Z" fill="#2E964C"/>
<path d="M266.059 74.3495C266.096 74.2515 266.176 74.1668 266.294 74.1007C266.393 74.0408 266.533 74.0047 266.7 73.9965L268.184 73.9977C268.236 73.9917 268.297 73.9974 268.357 74.0138C268.417 74.0302 268.472 74.0562 268.511 74.0872C268.557 74.13 268.588 74.1744 268.602 74.2176C268.616 74.2607 268.613 74.3016 268.592 74.3375L267.486 77.6339C267.296 78.004 267.322 78.4341 267.562 78.8804C267.788 79.1899 268.271 79.3479 269.028 79.346C269.769 79.3311 270.378 79.1658 270.752 78.8782C271.246 78.5295 271.575 78.1065 271.72 77.6303L272.817 74.3638C272.848 74.2637 272.928 74.1785 273.052 74.115C273.143 74.0508 273.286 74.0142 273.458 74.0108L274.929 74.0086C274.983 74.0027 275.047 74.0087 275.109 74.0257C275.171 74.0427 275.228 74.0695 275.269 74.1015C275.351 74.1878 275.375 74.2762 275.337 74.3483L273.317 80.3678C273.28 80.4658 273.2 80.5506 273.082 80.6166C272.983 80.6765 272.843 80.7127 272.676 80.7208L271.204 80.723C271.15 80.729 271.087 80.7229 271.025 80.7059C270.962 80.6889 270.906 80.6621 270.865 80.6301C270.821 80.5875 270.793 80.5434 270.781 80.5009C270.769 80.4584 270.774 80.4183 270.796 80.3833L270.896 80.0847C270.511 80.2916 270.077 80.4721 269.602 80.6242C269.134 80.7821 268.561 80.8641 267.927 80.8642C267.346 80.8945 266.689 80.8089 266.057 80.6206C265.829 80.5407 265.62 80.4399 265.442 80.3251C265.265 80.2103 265.124 80.0841 265.03 79.9552C264.798 79.625 264.684 79.2966 264.694 78.9899C264.697 78.5895 264.762 78.2019 264.891 77.831L266.059 74.3495Z" fill="#2E964C"/>
<path d="M282.055 78.5359C282.076 78.5032 282.081 78.4657 282.07 78.4258C282.059 78.3859 282.033 78.3443 281.993 78.3033C281.875 78.2262 281.719 78.1653 281.556 78.1335C281.269 78.0678 280.98 78.0144 280.694 77.9739L279.355 77.7663C278.917 77.7033 278.473 77.5928 278.054 77.4427C277.733 77.3239 277.458 77.1642 277.276 76.9894C277.087 76.7928 276.989 76.5932 276.991 76.411C276.971 76.1654 277.003 75.9299 277.086 75.7083C277.18 75.436 277.358 75.1882 277.615 74.9721C277.884 74.7262 278.226 74.5112 278.633 74.3316C279.05 74.1451 279.53 73.9957 280.065 73.8864C280.6 73.7812 281.201 73.7317 281.848 73.7398C282.38 73.739 282.949 73.7935 283.527 73.9008C283.941 73.9782 284.35 74.1098 284.71 74.281C285.009 74.4392 285.238 74.6256 285.362 74.8141C285.495 75.027 285.541 75.2343 285.497 75.4211C285.477 75.5188 285.401 75.6009 285.276 75.6586C285.178 75.721 285.029 75.7555 284.848 75.7571L283.321 75.7326C283.122 75.7354 282.989 75.7118 282.907 75.6639L282.624 75.498C282.502 75.4277 282.355 75.3701 282.201 75.3317C281.903 75.2756 281.61 75.2494 281.339 75.2546C280.939 75.2494 280.57 75.2837 280.248 75.3557C279.928 75.4227 279.72 75.5644 279.664 75.7536C279.628 75.8224 279.635 75.9031 279.684 75.9872C279.721 76.0253 279.774 76.0615 279.838 76.0922C279.902 76.1229 279.974 76.1472 280.048 76.1627C280.314 76.2361 280.584 76.2929 280.851 76.3314C281.186 76.4231 281.638 76.464 282.188 76.5447C283.313 76.721 284.057 76.9813 284.42 77.3256C284.819 77.7821 284.926 78.2357 284.723 78.6059C284.62 78.8761 284.433 79.1215 284.169 79.335C283.884 79.5801 283.524 79.7924 283.097 79.9673C282.645 80.156 282.122 80.3026 281.541 80.4039C280.963 80.4979 280.323 80.5367 279.642 80.5188C279.075 80.5255 278.462 80.4659 277.841 80.3435C277.393 80.249 276.956 80.0967 276.58 79.9038C276.266 79.7288 276.034 79.5256 275.915 79.323C275.789 79.1028 275.754 78.8899 275.814 78.6999C275.834 78.6021 275.91 78.5201 276.035 78.4624C276.139 78.4061 276.287 78.374 276.461 78.3696L277.99 78.3884C278.187 78.3913 278.318 78.4208 278.39 78.4977L278.659 78.7042C278.783 78.7915 278.947 78.8651 279.124 78.9136C279.464 78.9913 279.804 79.0249 280.106 79.0109C280.32 79.0131 280.528 79.0087 280.731 78.9977C280.944 78.984 281.146 78.9586 281.334 78.9218C281.524 78.8885 281.693 78.8386 281.835 78.7734C281.959 78.7152 282.035 78.6333 282.055 78.5359Z" fill="#2E964C"/>
<path d="M291.665 71.6056C291.712 71.5973 291.767 71.6007 291.82 71.6153C291.873 71.6298 291.921 71.6545 291.955 71.685C291.99 71.7263 292.012 71.7695 292.02 71.8119C292.028 71.8543 292.022 71.8949 292.002 71.9313L291.651 72.977C291.62 73.0775 291.546 73.1651 291.436 73.2321C291.353 73.3008 291.227 73.3438 291.078 73.3545L289.63 73.433C289.583 73.4413 289.528 73.4379 289.475 73.4234C289.422 73.4089 289.374 73.3842 289.339 73.3536C289.305 73.3123 289.283 73.2691 289.275 73.2267C289.267 73.1844 289.273 73.1437 289.293 73.1073L289.642 72.0677C289.674 71.9654 289.748 71.8758 289.859 71.8065C289.938 71.7374 290.065 71.696 290.215 71.6902L291.665 71.6056ZM288.985 80.6736C288.953 80.776 288.878 80.8655 288.768 80.9348C288.677 80.9959 288.554 81.0361 288.412 81.0511L287.133 81.1157C287.086 81.124 287.031 81.1206 286.978 81.1061C286.925 81.0916 286.877 81.0669 286.843 81.0364C286.808 80.995 286.786 80.9519 286.778 80.9095C286.77 80.8671 286.776 80.8264 286.796 80.79L288.88 74.5832C288.913 74.4813 288.987 74.3919 289.097 74.322C289.185 74.2588 289.308 74.2184 289.453 74.2057L290.731 74.1411C290.779 74.1328 290.834 74.1363 290.887 74.1508C290.94 74.1653 290.988 74.19 291.022 74.2205C291.057 74.2618 291.079 74.305 291.087 74.3474C291.095 74.3898 291.088 74.4304 291.068 74.4669L288.985 80.6736Z" fill="#2E964C"/>
<path d="M301.157 80.3748C301.121 80.4733 301.038 80.5569 300.913 80.6191C300.823 80.683 300.683 80.7199 300.515 80.7239L299.074 80.7315C299.021 80.7376 298.959 80.7318 298.898 80.7152C298.837 80.6986 298.781 80.6722 298.741 80.6406C298.661 80.5554 298.638 80.4677 298.675 80.3961L299.774 77.1228C299.971 76.7583 299.928 76.3274 299.652 75.8853C299.405 75.5784 298.906 75.4227 298.177 75.4307C297.439 75.4506 296.825 75.6154 296.434 75.8994C295.918 76.2399 295.58 76.6625 295.438 77.1423L294.339 80.4155C294.304 80.514 294.22 80.5976 294.096 80.6597C294.007 80.7221 293.872 80.7599 293.71 80.7679L292.257 80.7722C292.204 80.7783 292.141 80.7725 292.08 80.7559C292.02 80.7393 291.964 80.7129 291.924 80.6813C291.844 80.5961 291.821 80.5084 291.858 80.4368L293.883 74.4062C293.919 74.3089 293.998 74.2246 294.114 74.1586C294.211 74.0988 294.349 74.0625 294.512 74.0537L295.965 74.0495C296.016 74.0433 296.076 74.0487 296.135 74.0648C296.194 74.0808 296.247 74.1064 296.286 74.137C296.33 74.1793 296.36 74.2232 296.374 74.266C296.387 74.3087 296.384 74.3493 296.364 74.3849L296.264 74.6814C296.655 74.4589 297.107 74.2697 297.61 74.1169C298.087 73.9844 298.644 73.9167 299.25 73.9176C299.83 73.8897 300.479 73.9721 301.107 74.1531C301.334 74.2288 301.543 74.3262 301.722 74.4387C301.9 74.5512 302.042 74.6759 302.139 74.8041C302.39 75.131 302.514 75.4593 302.503 75.7643C302.509 76.1638 302.447 76.5498 302.317 76.9177L301.157 80.3748Z" fill="#2E964C"/>
<path d="M304.433 77.5452C304.594 77.0678 304.857 76.6196 305.219 76.207C305.564 75.8037 306.011 75.4395 306.551 75.1202C307.043 74.8281 307.637 74.5888 308.318 74.408C308.909 74.2388 309.605 74.1473 310.371 74.1382C310.969 74.1248 311.639 74.2227 312.282 74.4174C312.817 74.5947 313.28 74.8508 313.582 75.137C313.937 75.4816 314.15 75.8358 314.203 76.1693C314.305 76.6132 314.28 77.037 314.131 77.4277L313.935 78.0131C313.898 78.1091 313.818 78.1916 313.699 78.2555C313.6 78.3134 313.457 78.3475 313.288 78.3539L306.692 78.2902C306.628 78.4473 306.635 78.6234 306.715 78.8077C306.768 78.9383 306.9 79.073 307.091 79.1915C307.28 79.2957 307.507 79.3776 307.741 79.4266C308.024 79.482 308.304 79.5109 308.567 79.5118C309.266 79.5202 309.879 79.423 310.344 79.2304C310.468 79.1804 310.6 79.1355 310.74 79.0956C310.855 79.0706 310.987 79.0591 311.13 79.0616L312.71 79.0717C312.767 79.0665 312.834 79.0734 312.9 79.0913C312.965 79.1093 313.026 79.137 313.07 79.1699C313.115 79.2121 313.144 79.2558 313.154 79.2974C313.165 79.339 313.156 79.3775 313.129 79.4099C313.027 79.5811 312.872 79.7343 312.668 79.8653C312.378 80.0739 312.03 80.2553 311.631 80.4065C311.162 80.5886 310.642 80.7396 310.078 80.8576C309.474 80.9774 308.797 81.0361 308.071 81.0314C307.465 81.0397 306.795 80.9454 306.144 80.7604C305.606 80.5891 305.143 80.3316 304.856 80.0444C304.507 79.6753 304.302 79.3004 304.257 78.9477C304.193 78.4541 304.253 77.9831 304.433 77.5452ZM309.91 75.68C309.536 75.6753 309.192 75.7092 308.895 75.7798C308.597 75.8457 308.336 75.9376 308.116 76.0528C307.9 76.1635 307.716 76.291 307.568 76.4334C307.434 76.5561 307.324 76.6884 307.239 76.8292L311.709 76.8747C311.723 76.7427 311.717 76.6066 311.692 76.4673C311.676 76.3436 311.594 76.2112 311.456 76.0834C311.395 76.025 311.315 75.9694 311.22 75.9204C311.125 75.8714 311.019 75.8301 310.907 75.7991C310.55 75.7042 310.186 75.6581 309.858 75.666L309.91 75.68Z" fill="#2E964C"/>
<path d="M321.404 79.1843C321.425 79.1518 321.43 79.1146 321.42 79.075C321.41 79.0354 321.385 78.9942 321.346 78.9539C321.234 78.8785 321.085 78.8195 320.929 78.7894C320.653 78.7269 320.377 78.6767 320.102 78.6393L318.817 78.446C318.396 78.3768 317.974 78.2615 317.581 78.1082C317.273 77.9934 317.012 77.8374 316.839 77.6655C316.661 77.4721 316.569 77.2751 316.572 77.0938C316.555 76.8501 316.588 76.6159 316.671 76.395C316.765 76.1236 316.939 75.8758 317.188 75.6587C317.448 75.4109 317.779 75.194 318.175 75.0127C318.572 74.8201 319.036 74.6669 319.556 74.5567C320.071 74.447 320.65 74.392 321.271 74.3939C321.783 74.3879 322.329 74.4366 322.883 74.5376C323.28 74.6105 323.672 74.7372 324.015 74.9038C324.304 75.057 324.522 75.2407 324.636 75.4269C324.761 75.6371 324.803 75.8425 324.758 76.0285C324.738 76.1258 324.664 76.208 324.543 76.2665C324.442 76.3251 324.299 76.3604 324.131 76.3685L322.663 76.3589C322.474 76.3579 322.345 76.3414 322.266 76.2947L321.997 76.1326C321.88 76.064 321.739 76.0082 321.592 75.9715C321.306 75.9187 321.025 75.8955 320.764 75.9033C320.38 75.902 320.025 75.9396 319.715 76.0143C319.401 76.0812 319.194 76.223 319.136 76.4117C319.103 76.4818 319.114 76.5631 319.165 76.6469C319.2 76.6844 319.251 76.7198 319.312 76.7497C319.372 76.7796 319.442 76.803 319.512 76.8177C319.767 76.8881 320.026 76.9418 320.282 76.9774C320.613 77.0364 321.037 77.1016 321.565 77.1764C322.632 77.3354 323.356 77.5901 323.701 77.9305C324.074 78.3796 324.167 78.8278 323.965 79.1958C323.867 79.4662 323.688 79.7128 323.435 79.9287C323.159 80.1748 322.81 80.3891 322.398 80.567C321.958 80.757 321.454 80.9076 320.897 81.0157C320.342 81.1261 319.723 81.1805 319.061 81.177C318.518 81.1909 317.928 81.1355 317.334 81.0145C316.904 80.9301 316.483 80.7844 316.125 80.5957C315.826 80.4249 315.605 80.2254 315.493 80.0253C315.374 79.8078 315.344 79.5968 315.404 79.4074C315.424 79.3101 315.498 79.2279 315.618 79.1694C315.709 79.1252 315.829 79.0994 315.968 79.0943L317.438 79.0982C317.626 79.0992 317.752 79.1272 317.821 79.2029L318.079 79.3996C318.195 79.4867 318.35 79.5604 318.521 79.6089C318.847 79.6828 319.173 79.7129 319.464 79.696C319.669 79.6962 319.869 79.6898 320.064 79.6769C320.267 79.6589 320.461 79.6318 320.645 79.5957C320.828 79.5608 320.991 79.5096 321.128 79.4435C321.281 79.3852 321.377 79.2949 321.404 79.1843Z" fill="#2E964C"/>
<path d="M331.486 79.1224C331.506 79.0899 331.512 79.0527 331.502 79.0131C331.492 78.9735 331.467 78.9324 331.428 78.8922C331.376 78.8554 331.313 78.8223 331.243 78.7946C331.174 78.767 331.1 78.7455 331.025 78.7314C330.746 78.6643 330.465 78.6131 330.188 78.5785L328.907 78.3864C328.488 78.3283 328.064 78.2232 327.665 78.0785C327.355 77.9661 327.093 77.8094 326.925 77.6365C326.744 77.4427 326.649 77.2447 326.647 77.0618C326.637 76.8195 326.67 76.5856 326.747 76.3631C326.848 76.092 327.022 75.8426 327.265 75.6209C327.528 75.3748 327.858 75.1579 328.249 74.9743C328.655 74.7872 329.117 74.634 329.627 74.5174C330.141 74.4073 330.718 74.3519 331.337 74.3533C331.85 74.3447 332.4 74.3942 332.957 74.4991C333.349 74.5711 333.735 74.6963 334.073 74.8609C334.369 75.0134 334.591 75.1987 334.704 75.3868C334.829 75.5969 334.87 75.8022 334.825 75.9881C334.801 76.0847 334.722 76.1657 334.599 76.2229C334.502 76.2807 334.365 76.3153 334.202 76.3228L332.736 76.32C332.548 76.3192 332.406 76.2995 332.328 76.2528L332.072 76.0944C331.954 76.0269 331.815 75.9715 331.668 75.9336C331.38 75.8807 331.095 75.8566 330.831 75.8626C330.447 75.8617 330.093 75.8995 329.784 75.9744C329.479 76.0459 329.278 76.1883 329.219 76.3755C329.187 76.4457 329.196 76.5269 329.248 76.6107C329.281 76.6471 329.329 76.6816 329.388 76.7109C329.446 76.7401 329.513 76.7632 329.582 76.7777C329.836 76.8449 330.093 76.8982 330.349 76.9369C330.67 77.0244 331.116 77.0579 331.628 77.1348C332.705 77.2943 333.415 77.545 333.757 77.887C334.14 78.3364 334.237 78.7869 334.031 79.1551C333.932 79.4252 333.754 79.6718 333.503 79.8882C333.22 80.1324 332.869 80.3457 332.455 80.5237C332.021 80.7171 331.518 80.8682 330.959 80.9734C330.405 81.0842 329.787 81.1391 329.128 81.1361C328.584 81.1472 327.998 81.0923 327.406 80.975C326.976 80.892 326.556 80.7465 326.2 80.5573C325.899 80.3877 325.678 80.1877 325.571 79.9875C325.45 79.7696 325.416 79.5577 325.47 79.3665C325.494 79.2699 325.573 79.1888 325.697 79.1317C325.793 79.0739 325.93 79.0393 326.093 79.0318L327.559 79.0345C327.747 79.0354 327.885 79.0667 327.954 79.1423L328.211 79.3388C328.321 79.4244 328.473 79.4971 328.639 79.5443C328.964 79.6179 329.289 79.6477 329.579 79.6306C329.785 79.6325 329.985 79.626 330.178 79.6111C330.382 79.5918 330.579 79.5657 330.769 79.5328C330.949 79.4956 331.111 79.4444 331.251 79.3803C331.379 79.3153 331.459 79.2267 331.486 79.1224Z" fill="#2E964C"/>
<path d="M256.105 111.595V160.152" stroke="#263238" stroke-width="0.879169" stroke-linecap="round" stroke-linejoin="round"/>
<path d="M262.826 129.919H259.276V157.72H262.826V129.919Z" fill="#263238"/>
<path d="M267.9 141.262H264.35V157.712H267.9V141.262Z" fill="#92E3A9"/>
<path d="M273.862 120.929H270.312V157.719H273.862V120.929Z" fill="white" stroke="#263238" stroke-width="0.879169" stroke-linejoin="round"/>
<path d="M283.761 115.622H280.211V157.712H283.761V115.622Z" fill="#263238"/>
<path d="M288.841 147.305H285.291V157.719H288.841V147.305Z" fill="#92E3A9"/>
<path d="M294.803 132.864H291.253V157.719H294.803V132.864Z" fill="white" stroke="#263238" stroke-width="0.879169" stroke-linejoin="round"/>
<path d="M309.265 136.666H305.715V157.711H309.265V136.666Z" fill="#263238"/>
<path d="M314.345 120.337H310.795V157.712H314.345V120.337Z" fill="#92E3A9"/>
<path d="M320.308 128.59H316.758V157.712H320.308V128.59Z" fill="white" stroke="#263238" stroke-width="0.879169" stroke-linejoin="round"/>
<path d="M252.294 151.283H254.279" stroke="#263238" stroke-width="0.879169" stroke-linecap="round" stroke-linejoin="round"/>
<path d="M252.294 145.288H254.279" stroke="#263238" stroke-width="0.879169" stroke-linecap="round" stroke-linejoin="round"/>
<path d="M252.294 139.3H254.279" stroke="#263238" stroke-width="0.879169" stroke-linecap="round" stroke-linejoin="round"/>
<path d="M252.294 133.305H254.279" stroke="#263238" stroke-width="0.879169" stroke-linecap="round" stroke-linejoin="round"/>
<path d="M252.294 127.309H254.279" stroke="#263238" stroke-width="0.879169" stroke-linecap="round" stroke-linejoin="round"/>
<path d="M252.294 121.313H254.279" stroke="#263238" stroke-width="0.879169" stroke-linecap="round" stroke-linejoin="round"/>
<path d="M252.294 115.317H254.279" stroke="#263238" stroke-width="0.879169" stroke-linecap="round" stroke-linejoin="round"/>
<path d="M253.755 157.72H322.796" stroke="#263238" stroke-width="0.879169" stroke-linecap="round" stroke-linejoin="round"/>
<path opacity="0.3" d="M267.9 141.262H264.35V157.712H267.9V141.262Z" fill="black"/>
<path opacity="0.3" d="M288.841 147.305H285.291V157.719H288.841V147.305Z" fill="black"/>
<path opacity="0.3" d="M314.345 120.337H310.795V157.712H314.345V120.337Z" fill="black"/>
<path d="M249.474 104.855C248.285 104.857 247.144 105.407 246.303 106.384C245.462 107.361 244.989 108.685 244.987 110.066V157.703C244.989 159.085 245.462 160.41 246.303 161.389C247.144 162.367 248.284 162.918 249.474 162.922H325.609C326.8 162.918 327.941 162.367 328.783 161.389C329.625 160.411 330.099 159.086 330.103 157.703V110.05C330.101 108.667 329.627 107.34 328.785 106.362C327.942 105.384 326.8 104.833 325.609 104.831L249.474 104.855Z" stroke="#263238" stroke-linejoin="round"/>
</svg>
